<svg width="60" height="60" viewBox="0 0 60 60" fill="none" xmlns="http://www.w3.org/2000/svg">
<path fill-rule="evenodd" clip-rule="evenodd" d="M30 60C46.5685 60 60 46.5685 60 30C60 13.4315 46.5685 0 30 0C13.4315 0 0 13.4315 0 30C0 46.5685 13.4315 60 30 60Z" fill="#286053"/>
<path fill-rule="evenodd" clip-rule="evenodd" d="M30 54C43.2548 54 54 43.2548 54 30C54 16.7452 43.2548 6 30 6C16.7452 6 6 16.7452 6 30C6 43.2548 16.7452 54 30 54Z" fill="#3ED598"/>
<path d="M21 30C21 29.4477 21.4477 29 22 29H29V22C29 21.4477 29.4477 21 30 21C30.5523 21 31 21.4477 31 22V29H38C38.5523 29 39 29.4477 39 30C39 30.5523 38.5523 31 38 31H31V38C31 38.5523 30.5523 39 30 39C29.4477 39 29 38.5523 29 38V31H22C21.4477 31 21 30.5523 21 30Z" fill="white"/>
</svg>
